<svg width="143" height="31" viewBox="0 0 143 31" fill="none" xmlns="http://www.w3.org/2000/svg">
<g id="razorpay" clip-path="url(#clip0_447_1303)">
<path id="Vector" d="M10.0748 8.42536L8.89941 12.7515L15.627 8.40073L11.227 24.8172L15.6957 24.8209L22.1957 0.57312" fill="#3395FF"/>
<path id="Vector_2" d="M2.83317 17.9194L0.982422 24.8209H10.1414L13.8891 10.7814L2.83317 17.9194ZM34.6481 11.8433C34.4242 12.6754 33.9929 13.2866 33.3496 13.6769C32.7078 14.0664 31.8071 14.262 30.6444 14.262H26.9503L28.2473 9.42615H31.9414C33.1026 9.42615 33.9003 9.62018 34.3332 10.0157C34.766 10.4112 34.8705 11.0157 34.6481 11.8515M38.4727 11.747C38.9429 10.0008 38.7488 8.65749 37.8891 7.71719C37.0309 6.78436 35.525 6.31421 33.3757 6.31421H25.1317L20.169 24.8291H24.1742L26.1742 17.3664H28.8011C29.3906 17.3664 29.8548 17.4635 30.1936 17.65C30.5332 17.8441 30.7324 18.1799 30.7936 18.665L31.5085 24.8291H35.7996L35.1041 19.0829C34.9623 17.7993 34.375 17.0456 33.3429 16.8217C34.6585 16.4411 35.7608 15.8067 36.6488 14.9261C37.5307 14.052 38.1608 12.9564 38.4727 11.7545M48.2085 18.2023C47.8727 19.456 47.3578 20.4038 46.6615 21.0679C45.9645 21.7321 45.1317 22.0605 44.16 22.0605C43.1705 22.0605 42.4996 21.7396 42.1451 21.0903C41.7899 20.4411 41.7779 19.5008 42.1078 18.2694C42.4376 17.0381 42.9638 16.0754 43.6876 15.3814C44.4115 14.6873 45.2578 14.3403 46.2294 14.3403C47.1996 14.3403 47.8638 14.6761 48.1996 15.3426C48.5429 16.012 48.5503 16.9694 48.2145 18.2157L48.2085 18.2023ZM49.9638 11.65L49.4623 13.5232C49.2459 12.8515 48.8257 12.3142 48.2048 11.9112C47.5824 11.5157 46.8123 11.3142 45.8936 11.3142C44.7668 11.3142 43.6847 11.6053 42.6474 12.1873C41.61 12.7694 40.6996 13.5903 39.9235 14.65C39.1474 15.7097 38.5802 16.9112 38.2145 18.262C37.8563 19.6202 37.7817 20.8067 37.9981 21.8366C38.222 22.8739 38.6921 23.665 39.416 24.2172C40.1474 24.7769 41.0802 25.053 42.222 25.053C43.1293 25.0576 44.0263 24.8614 44.8488 24.4784C45.6621 24.1116 46.3854 23.5717 46.9682 22.8963L46.4459 24.8485H50.319L53.8556 11.6567H49.975L49.9638 11.65ZM67.7735 11.65H56.51L55.7227 14.5903H62.2765L53.6123 22.0754L52.872 24.8366H64.4988L65.2862 21.8963H58.2638L67.0608 14.2993M77.6877 18.1799C77.3391 19.4784 76.822 20.4545 76.1391 21.0903C75.4563 21.7321 74.6294 22.053 73.6585 22.053C71.6287 22.053 70.9615 20.762 71.6541 18.1799C71.9974 16.8963 72.5168 15.9314 73.2108 15.2814C73.9048 14.6291 74.7459 14.3038 75.7347 14.3038C76.7048 14.3038 77.36 14.6269 77.6973 15.2776C78.0347 15.9269 78.0317 16.8948 77.6877 18.1784M79.9548 12.1463C79.063 11.5911 77.925 11.3135 76.5369 11.3135C75.1317 11.3135 73.8309 11.5896 72.6339 12.1418C71.4419 12.6906 70.3942 13.5098 69.5742 14.5344C68.7309 15.5717 68.1242 16.7881 67.7518 18.1761C67.3862 19.559 67.3414 20.7732 67.625 21.8127C67.9085 22.85 68.5056 23.6485 69.4011 24.2008C70.3041 24.7575 71.4533 25.0344 72.8638 25.0344C74.2518 25.0344 75.5429 24.7553 76.7294 24.2C77.916 23.6418 78.9309 22.8493 79.7742 21.8045C80.6175 20.7642 81.222 19.5508 81.5951 18.1627C81.9682 16.7747 82.013 15.5627 81.7294 14.5209C81.4459 13.4836 80.8563 12.6851 79.9682 12.1291M93.7817 15.1739L94.7742 11.5844C94.4384 11.4127 93.9981 11.3232 93.4459 11.3232C92.5578 11.3232 91.7071 11.5426 90.8862 11.9873C90.1802 12.365 89.5802 12.8978 89.0727 13.565L89.5876 11.6321L88.463 11.6366H85.7018L82.1421 24.8232H86.0697L87.9167 17.9299C88.1854 16.9276 88.669 16.1388 89.3668 15.5791C90.0608 15.0172 90.9265 14.7358 91.9712 14.7358C92.613 14.7358 93.21 14.8829 93.7772 15.1761M104.71 18.2433C104.374 19.4747 103.867 20.415 103.173 21.0642C102.479 21.7164 101.643 22.0418 100.673 22.0418C99.7026 22.0418 99.0384 21.7135 98.6877 21.0567C98.3294 20.3963 98.322 19.4448 98.6578 18.1941C98.9936 16.9441 99.5085 15.9851 100.218 15.3209C100.926 14.6515 101.762 14.3172 102.732 14.3172C103.688 14.3172 104.329 14.6605 104.673 15.3545C105.016 16.0485 105.023 17.0112 104.694 18.2426M107.44 12.1679C106.712 11.5859 105.783 11.2948 104.656 11.2948C103.669 11.2948 102.728 11.5187 101.835 11.9709C100.944 12.4224 100.22 13.0381 99.6638 13.8172L99.6772 13.7276L100.336 11.6306H96.5003L95.5227 15.2799L95.4929 15.4067L91.463 30.4396H95.3959L97.4257 22.8724C97.6272 23.5456 98.0377 24.0739 98.6645 24.456C99.2914 24.8366 100.065 25.0254 100.985 25.0254C102.127 25.0254 103.217 24.7493 104.25 24.197C105.288 23.6433 106.183 22.8463 106.944 21.8164C107.706 20.7866 108.27 19.5926 108.631 18.2418C108.997 16.8888 109.071 15.6821 108.862 14.6261C108.65 13.5687 108.179 12.75 107.452 12.1709M120.485 18.1896C120.15 19.4358 119.635 20.3911 118.941 21.0478C118.247 21.709 117.411 22.0381 116.441 22.0381C115.448 22.0381 114.776 21.7172 114.426 21.0679C114.067 20.4187 114.06 19.4784 114.388 18.247C114.717 17.0157 115.241 16.053 115.965 15.359C116.688 14.665 117.535 14.3187 118.507 14.3187C119.477 14.3187 120.134 14.6545 120.477 15.3187C120.82 15.9851 120.823 16.9426 120.488 18.1918L120.485 18.1896ZM122.239 11.6336L121.737 13.5067C121.52 12.8314 121.103 12.2941 120.483 11.8948C119.856 11.4963 119.088 11.2978 118.17 11.2978C117.043 11.2978 115.955 11.5888 114.916 12.1709C113.879 12.753 112.968 13.5694 112.192 14.6261C111.416 15.6829 110.849 16.8873 110.483 18.2381C110.121 19.5941 110.05 20.7829 110.267 21.8172C110.485 22.847 110.956 23.6426 111.685 24.1978C112.412 24.75 113.349 25.0291 114.491 25.0291C115.409 25.0291 116.285 24.8381 117.118 24.4545C117.929 24.086 118.65 23.5454 119.232 22.8702L118.709 24.8239H122.582L126.118 11.6373H122.245L122.239 11.6336ZM142.379 11.6381L142.381 11.6344H140C139.924 11.6344 139.857 11.6381 139.788 11.6396H138.553L137.918 12.5202L137.762 12.7291L137.694 12.8336L132.676 19.8247L131.638 11.6381H127.528L129.61 24.0784L125.013 30.4441H129.11L130.222 28.8672C130.253 28.8209 130.282 28.7821 130.319 28.7329L131.618 26.8896L131.655 26.8373L137.47 18.5911L142.373 11.6508L142.381 11.6463H142.379V11.6381Z" fill="#072654"/>
</g>
<defs>
<clipPath id="clip0_447_1303">
<rect width="141.493" height="30" fill="white" transform="translate(0.922852 0.5)"/>
</clipPath>
</defs>
</svg>
