<svg width="66" height="31" viewBox="0 0 66 31" fill="none" xmlns="http://www.w3.org/2000/svg">
<g id="Upi">
<path id="Vector" d="M6.31549 22.4334H6.72107L6.34124 24.0107C6.2833 24.2425 6.29618 24.4227 6.37343 24.5386C6.45068 24.6545 6.59231 24.7124 6.80476 24.7124C7.01077 24.7124 7.18459 24.6545 7.31978 24.5386C7.45498 24.4227 7.5451 24.2425 7.60304 24.0107L7.98287 22.4334H8.39489L8.00862 24.0493C7.92493 24.397 7.77686 24.6609 7.55798 24.8347C7.34553 25.0086 7.06227 25.0987 6.71463 25.0987C6.36699 25.0987 6.1288 25.015 6.00004 24.8412C5.87128 24.6674 5.84553 24.4034 5.92922 24.0558L6.31549 22.4334ZM8.33695 25.0279L8.98073 22.3304L10.2039 23.9141C10.2361 23.9592 10.2683 24.0043 10.3005 24.0558C10.3327 24.1073 10.3648 24.1652 10.4035 24.2296L10.8348 22.4334H11.2146L10.5709 25.1244L9.32193 23.5086L9.22536 23.3734C9.19317 23.3219 9.16742 23.2768 9.14811 23.2189L8.71678 25.0214H8.33695V25.0279ZM11.1824 25.0279L11.8005 22.4334H12.2125L11.5945 25.0279H11.1824ZM12.1803 25.0279L12.7983 22.4334H14.2082L14.1245 22.794H13.1266L12.9721 23.4377H13.97L13.8799 23.8047H12.882L12.5923 25.0214H12.1803V25.0279ZM14.0472 25.0279L14.6653 22.4334H15.0773L14.4593 25.0279H14.0472ZM15.0451 25.0279L15.6631 22.4334H17.073L16.9893 22.794H15.9915L15.8369 23.4442H16.8348L16.7447 23.8111H15.7468L15.5472 24.648H16.5451L16.455 25.0279H15.0451ZM16.9314 25.0279L17.5494 22.4334H18.103C18.4636 22.4334 18.7146 22.4528 18.8498 22.4914C18.985 22.53 19.1009 22.588 19.191 22.6781C19.3069 22.794 19.3842 22.942 19.4163 23.1159C19.4485 23.2961 19.4357 23.5021 19.3842 23.7274C19.3262 23.9592 19.2425 24.1588 19.1266 24.339C19.0108 24.5193 18.8627 24.6609 18.6889 24.7768C18.5601 24.8669 18.4185 24.9249 18.264 24.9635C18.1159 25.0021 17.8906 25.0214 17.5945 25.0214H16.9314V25.0279ZM17.4335 24.6416H17.7812C17.9679 24.6416 18.1159 24.6287 18.2189 24.603C18.3219 24.5772 18.4121 24.5322 18.4957 24.4742C18.6116 24.3905 18.7082 24.2875 18.7854 24.1588C18.8627 24.0365 18.9206 23.8884 18.9593 23.721C18.9979 23.5536 19.0108 23.412 18.9915 23.2897C18.9721 23.1674 18.9271 23.0579 18.8498 22.9742C18.7919 22.9098 18.7211 22.8712 18.6245 22.8455C18.5279 22.8197 18.3799 22.8068 18.1674 22.8068H17.8713L17.4335 24.6416ZM21.2769 23.8626L21 25.0279H20.6138L21.2318 22.4334H21.8563C22.043 22.4334 22.1717 22.4463 22.2554 22.4656C22.3391 22.485 22.4035 22.5171 22.455 22.5686C22.5194 22.6266 22.5644 22.7103 22.5837 22.8133C22.603 22.9163 22.5966 23.0257 22.5709 23.148C22.5387 23.2704 22.4936 23.3862 22.4228 23.4892C22.352 23.5922 22.2683 23.6759 22.1782 23.7339C22.1009 23.7789 22.0172 23.8176 21.9271 23.8369C21.837 23.8562 21.6953 23.8691 21.5151 23.8691H21.2769V23.8626ZM21.3863 23.515H21.4893C21.7146 23.515 21.8756 23.4892 21.9657 23.4377C22.0558 23.3862 22.1138 23.2961 22.146 23.1674C22.1782 23.0322 22.1588 22.9292 22.0945 22.8777C22.0236 22.8197 21.882 22.794 21.6696 22.794H21.5666L21.3863 23.515ZM23.9678 25.0279L23.8391 24.3583H22.8348L22.3842 25.0279H21.9528L23.8198 22.3304L24.3992 25.0279H23.9678ZM23.0794 24.0043H23.7812L23.6653 23.412C23.6588 23.3734 23.6524 23.3283 23.6524 23.2832C23.646 23.2317 23.646 23.1802 23.646 23.1223C23.6202 23.1802 23.5945 23.2317 23.5623 23.2832C23.5365 23.3347 23.5108 23.3798 23.485 23.4184L23.0794 24.0043ZM24.9915 25.0279L25.2747 23.8433L24.7597 22.4399H25.191L25.5129 23.3219C25.5194 23.3476 25.5258 23.3734 25.5387 23.412C25.5515 23.4506 25.558 23.4892 25.5709 23.5279L25.6481 23.412C25.6739 23.3734 25.6996 23.3412 25.7254 23.309L26.4786 22.4399H26.8906L25.6867 23.8369L25.4035 25.0214H24.9915V25.0279ZM28.9121 23.7468C28.9121 23.7274 28.9185 23.6695 28.9314 23.5794C28.9378 23.5021 28.9442 23.4442 28.9507 23.3927C28.9249 23.4506 28.8992 23.5086 28.867 23.5729C28.8348 23.6309 28.7962 23.6953 28.7511 23.7532L27.7597 25.1373L27.4378 23.7274C27.4249 23.6695 27.4121 23.6116 27.4056 23.5601C27.3992 23.5086 27.3927 23.4506 27.3927 23.3991C27.3799 23.4506 27.3606 23.5086 27.3412 23.5729C27.3219 23.6309 27.2962 23.6953 27.264 23.7596L26.6846 25.0343H26.3048L27.5472 22.3304L27.9013 23.9656C27.9078 23.9914 27.9142 24.0365 27.9206 24.0944C27.9271 24.1523 27.94 24.2296 27.9528 24.3197C27.9979 24.2425 28.0558 24.1523 28.1331 24.0365C28.1524 24.0043 28.1717 23.985 28.1782 23.9656L29.2983 22.3304L29.2597 25.0343H28.8799L28.9121 23.7468ZM29.5945 25.0279L30.2125 22.4334H31.6224L31.5387 22.794H30.5408L30.3863 23.4442H31.3842L31.294 23.8111H30.2962L30.0966 24.648H31.0945L31.0043 25.0279H29.5945ZM31.4743 25.0279L32.1181 22.3304L33.3412 23.9141C33.3734 23.9592 33.4056 24.0043 33.4378 24.0558C33.47 24.1073 33.5022 24.1652 33.5408 24.2296L33.9721 22.4334H34.352L33.7082 25.1244L32.4593 23.5086L32.3627 23.3734C32.3305 23.3219 32.3048 23.2768 32.2854 23.2189L31.8541 25.0214H31.4743V25.0279ZM35.6653 22.7875L35.1309 25.0214H34.7189L35.2533 22.7875H34.5837L34.6674 22.427H36.4185L36.3348 22.7875H35.6653ZM36.0966 24.5064L36.4636 24.3519C36.47 24.4678 36.5022 24.5579 36.573 24.6159C36.6438 24.6738 36.7404 24.706 36.8691 24.706C36.9915 24.706 37.0945 24.6738 37.1846 24.603C37.2747 24.5322 37.3327 24.442 37.3584 24.3262C37.397 24.1716 37.3069 24.0365 37.088 23.9206C37.0558 23.9013 37.0365 23.8884 37.0172 23.8819C36.7726 23.7403 36.6181 23.618 36.5537 23.5021C36.4893 23.3862 36.4764 23.251 36.5151 23.0901C36.5666 22.8777 36.676 22.7103 36.8498 22.5751C37.0236 22.4463 37.2168 22.3755 37.4485 22.3755C37.6352 22.3755 37.7833 22.4141 37.8927 22.485C38.0022 22.5558 38.0601 22.6652 38.0794 22.8004L37.7189 22.9678C37.6867 22.8841 37.6481 22.8262 37.5966 22.7875C37.5451 22.7489 37.4807 22.7296 37.4035 22.7296C37.294 22.7296 37.1975 22.7618 37.1202 22.8197C37.043 22.8777 36.9915 22.9549 36.9657 23.0579C36.9271 23.2124 37.0365 23.3605 37.2876 23.4957C37.3069 23.5086 37.3198 23.515 37.3327 23.5214C37.5515 23.6373 37.6996 23.7532 37.764 23.8691C37.8284 23.985 37.8412 24.1201 37.8026 24.294C37.7447 24.5386 37.6224 24.7317 37.4357 24.8798C37.249 25.0214 37.0301 25.0987 36.7726 25.0987C36.5601 25.0987 36.3927 25.0472 36.2769 24.9442C36.1481 24.8412 36.0902 24.6931 36.0966 24.5064ZM39.1288 25.0279L39.7468 22.4334H40.1588L39.5408 25.0279H39.1288ZM40.1331 25.0279L40.7769 22.3304L42 23.9141C42.0322 23.9592 42.0644 24.0043 42.0966 24.0558C42.1288 24.1073 42.161 24.1652 42.1996 24.2296L42.6309 22.4334H43.0108L42.367 25.1244L41.1181 23.5086L41.0215 23.3734C40.9893 23.3219 40.9636 23.2768 40.9442 23.2189L40.5129 25.0214H40.1331V25.0279ZM44.3241 22.7875L43.7897 25.0214H43.3777L43.9121 22.7875H43.2425L43.3262 22.427H45.0773L44.9936 22.7875H44.3241ZM44.7683 25.0279L45.3863 22.4334H46.8026L46.7189 22.794H45.7211L45.5666 23.4442H46.5644L46.4743 23.8111H45.4764L45.2769 24.648H46.2747L46.1846 25.0279H44.7683ZM47.3112 23.8626L47.0344 25.0214H46.6481L47.2661 22.427H47.8391C48.0065 22.427 48.1352 22.4399 48.2189 22.4592C48.3091 22.4785 48.3799 22.5171 48.4314 22.5686C48.4957 22.633 48.5344 22.7103 48.5537 22.8133C48.573 22.9098 48.5666 23.0193 48.5408 23.1416C48.4893 23.3476 48.4056 23.515 48.2769 23.6309C48.1481 23.7468 47.9872 23.8176 47.794 23.8433L48.3799 25.0214H47.9163L47.3563 23.8626H47.3112ZM47.4142 23.5343H47.4915C47.7103 23.5343 47.8584 23.5086 47.9421 23.4571C48.0258 23.4056 48.0837 23.3154 48.1159 23.1802C48.1481 23.0386 48.1352 22.9356 48.0709 22.8777C48.0065 22.8197 47.8713 22.7875 47.6653 22.7875H47.588L47.4142 23.5343ZM48.6309 25.0279L49.249 22.4334H50.6588L50.5751 22.794H49.5773L49.4228 23.4377H50.4206L50.3305 23.8047H49.3327L49.043 25.0214H48.6309V25.0279ZM52.0301 25.0279L51.9013 24.3583H50.897L50.4464 25.0279H50.0151L51.882 22.3304L52.4614 25.0279H52.0301ZM51.1352 24.0043H51.837L51.7211 23.412C51.7146 23.3734 51.7082 23.3283 51.7082 23.2832C51.7018 23.2317 51.7018 23.1802 51.7018 23.1223C51.676 23.1802 51.6503 23.2317 51.6181 23.2832C51.5923 23.3347 51.5666 23.3798 51.5408 23.4184L51.1352 24.0043ZM55.1395 23.0643C55.0494 22.9613 54.94 22.8841 54.8241 22.839C54.7082 22.7875 54.5794 22.7618 54.4314 22.7618C54.1545 22.7618 53.9099 22.8519 53.691 23.0322C53.4721 23.2124 53.3305 23.4506 53.2597 23.7403C53.1953 24.0171 53.2211 24.2489 53.3498 24.4356C53.4721 24.6159 53.6653 24.706 53.9228 24.706C54.0709 24.706 54.2189 24.6802 54.367 24.6223C54.5151 24.5708 54.6631 24.4871 54.8176 24.3777L54.7018 24.854C54.573 24.9377 54.4378 24.9957 54.2962 25.0343C54.1545 25.0729 54.0129 25.0922 53.8584 25.0922C53.6653 25.0922 53.4915 25.0601 53.3434 24.9957C53.1953 24.9313 53.073 24.8347 52.9764 24.706C52.8799 24.5837 52.8219 24.4356 52.7962 24.2682C52.7704 24.1008 52.7769 23.9206 52.8284 23.7274C52.8734 23.5343 52.9507 23.3605 53.0537 23.1931C53.1567 23.0257 53.2919 22.8777 53.4464 22.7553C53.6009 22.6266 53.7683 22.53 53.9485 22.4656C54.1288 22.4013 54.3091 22.3691 54.4958 22.3691C54.6438 22.3691 54.779 22.3884 54.9078 22.4334C55.0301 22.4785 55.146 22.5429 55.249 22.633L55.1395 23.0643ZM55.1782 25.0279L55.7962 22.4334H57.206L57.1224 22.794H56.1245L55.97 23.4442H56.9679L56.8777 23.8111H55.8799L55.6803 24.648H56.6782L56.588 25.0279H55.1782Z" fill="#3D3D3C"/>
<path id="Vector_2" d="M47.6841 20.1739H44.8579L48.785 5.99146H51.6112L47.6841 20.1739ZM46.2163 6.43566C46.0232 6.16527 45.7206 6.03008 45.3086 6.03008H29.7807L29.0146 8.8112H43.139L42.315 11.779H31.0167V11.7726H28.1905L25.8472 20.2382H28.6734L30.2442 14.5601H42.9459C43.3451 14.5601 43.7184 14.4249 44.0661 14.1545C44.4137 13.8842 44.6455 13.5494 44.7549 13.1503L46.3257 7.47214C46.4481 7.04725 46.4094 6.70605 46.2163 6.43566ZM24.1991 19.2854C24.0446 19.8455 23.5296 20.2382 22.9502 20.2382H8.38154C7.98239 20.2382 7.68626 20.103 7.49312 19.8327C7.29999 19.5623 7.25493 19.2275 7.37081 18.8284L10.9245 6.03008H13.7506L10.5768 17.4636H21.8815L25.0554 6.03008H27.8815L24.1991 19.2854Z" fill="#70706E"/>
<path id="Vector_3" d="M56.4917 6.01721L60.0646 13.1245L52.5518 20.2318L56.4917 6.01721Z" fill="#098041"/>
<path id="Vector_4" d="M53.9805 6.01721L57.5535 13.1245L50.0342 20.2318L53.9805 6.01721Z" fill="#E97626"/>
</g>
</svg>
